<svg id="svg" version="1.1" xmlns="http://www.w3.org/2000/svg" xmlns:xlink="http://www.w3.org/1999/xlink" width="400" height="400" viewBox="0, 0, 400,400"><g id="svgg"><path id="path0" d="M131.557 114.999 C 130.269 115.699,129.605 116.720,128.434 119.800 C 126.904 123.826,126.538 124.760,125.693 126.800 C 125.465 127.350,124.883 128.880,124.400 130.200 C 123.917 131.520,123.335 133.050,123.107 133.600 C 122.879 134.150,122.561 134.960,122.400 135.400 C 122.239 135.840,121.920 136.650,121.692 137.200 C 121.463 137.750,120.736 139.640,120.075 141.400 C 119.414 143.160,117.312 148.650,115.405 153.600 C 113.497 158.550,111.396 164.040,110.737 165.800 C 110.077 167.560,109.372 169.313,109.169 169.695 C 108.294 171.341,108.288 171.325,114.685 183.600 C 116.463 187.010,118.847 191.600,119.984 193.800 C 121.122 196.000,122.220 197.971,122.426 198.180 C 122.632 198.389,122.800 198.869,122.800 199.247 C 122.800 199.624,122.935 199.993,123.100 200.067 C 123.265 200.140,124.133 201.640,125.029 203.400 C 125.926 205.160,127.793 208.760,129.179 211.400 C 135.854 224.110,138.748 229.656,143.898 239.600 C 145.322 242.350,147.253 246.040,148.190 247.800 C 149.127 249.560,151.386 253.880,153.210 257.400 C 158.634 267.867,159.842 269.740,163.664 273.614 C 169.258 279.284,174.545 282.286,183.200 284.704 C 186.649 285.668,220.036 285.930,221.449 285.005 C 222.633 284.229,223.996 282.102,223.999 281.027 C 224.000 280.272,221.434 275.023,217.141 266.999 C 215.963 264.798,214.374 261.738,213.608 260.199 C 212.843 258.659,212.121 257.310,212.006 257.200 C 211.890 257.090,211.236 255.920,210.553 254.600 C 207.154 248.035,204.590 243.162,203.360 240.935 C 201.628 237.797,201.766 236.852,204.986 229.800 C 205.288 229.140,205.836 227.790,206.204 226.800 C 206.573 225.810,207.038 224.595,207.237 224.100 C 207.437 223.605,207.780 222.750,208.000 222.200 C 208.220 221.650,208.562 220.795,208.760 220.300 C 208.958 219.805,209.498 218.547,209.960 217.504 C 210.422 216.462,210.800 215.424,210.800 215.199 C 210.800 214.974,210.959 214.477,211.153 214.095 C 211.480 213.453,211.820 212.649,212.760 210.300 C 212.958 209.805,213.498 208.547,213.960 207.504 C 214.422 206.462,214.800 205.367,214.800 205.071 C 214.800 204.775,214.933 204.401,215.095 204.238 C 215.257 204.076,217.192 199.411,219.395 193.872 C 221.598 188.332,223.574 183.825,223.786 183.855 C 224.187 183.911,225.007 185.376,229.691 194.400 C 231.232 197.370,233.174 201.060,234.006 202.600 C 234.837 204.140,237.044 208.370,238.909 212.000 C 240.774 215.630,243.011 219.950,243.882 221.600 C 247.634 228.715,250.500 234.188,253.412 239.800 C 255.124 243.100,257.279 247.240,258.201 249.000 C 259.123 250.760,261.282 254.900,263.000 258.200 C 270.034 271.715,274.376 276.637,283.320 281.238 C 290.817 285.095,293.016 285.400,313.291 285.400 L 330.782 285.400 331.835 284.347 C 333.838 282.344,333.652 280.391,330.976 275.356 C 329.702 272.960,327.997 269.740,327.187 268.200 C 326.376 266.660,324.857 263.780,323.812 261.800 C 319.372 253.391,317.567 249.964,315.491 246.000 C 314.281 243.690,312.665 240.630,311.899 239.200 C 311.134 237.770,309.651 234.980,308.604 233.000 C 307.557 231.020,306.027 228.140,305.203 226.600 C 304.380 225.060,302.394 221.280,300.790 218.200 C 299.186 215.120,297.247 211.430,296.481 210.000 C 295.715 208.570,294.330 205.960,293.403 204.200 C 292.476 202.440,290.952 199.560,290.016 197.800 C 289.081 196.040,287.365 192.800,286.202 190.600 C 285.040 188.400,283.233 184.980,282.186 183.000 C 281.140 181.020,279.435 177.780,278.398 175.800 C 276.531 172.236,274.604 168.585,271.114 162.000 C 268.845 157.717,265.139 150.707,263.079 146.800 C 262.209 145.150,260.829 142.540,260.013 141.000 C 259.197 139.460,257.213 135.680,255.605 132.600 C 253.998 129.520,252.554 126.820,252.397 126.600 C 252.240 126.380,251.052 124.130,249.756 121.600 C 244.806 111.935,240.780 111.687,237.331 120.834 C 235.257 126.332,226.773 148.101,226.197 149.400 C 225.905 150.060,225.364 151.410,224.996 152.400 C 224.627 153.390,224.162 154.605,223.963 155.100 C 223.233 156.911,222.792 158.020,222.454 158.900 C 222.263 159.395,221.916 160.250,221.682 160.800 C 221.448 161.350,219.164 167.200,216.605 173.800 C 214.047 180.400,211.760 186.250,211.523 186.800 C 211.287 187.350,210.937 188.205,210.746 188.700 C 210.416 189.558,210.038 190.510,209.238 192.500 C 209.039 192.995,208.302 194.930,207.600 196.800 C 206.044 200.945,205.829 201.503,205.254 202.900 C 205.004 203.505,204.620 204.450,204.400 205.000 C 204.180 205.550,203.833 206.405,203.630 206.900 C 203.426 207.395,201.699 211.805,199.791 216.700 C 197.884 221.595,196.176 225.691,195.996 225.803 C 195.611 226.040,194.724 224.652,192.290 220.000 C 191.311 218.130,189.747 215.160,188.814 213.400 C 187.880 211.640,186.167 208.400,185.005 206.200 C 183.844 204.000,181.940 200.400,180.774 198.200 C 179.607 196.000,177.924 192.760,177.032 191.000 C 176.141 189.240,175.319 187.710,175.206 187.600 C 175.093 187.490,174.550 186.500,174.001 185.400 C 173.451 184.300,171.997 181.510,170.769 179.200 C 168.266 174.491,164.400 167.171,161.823 162.262 C 160.882 160.468,159.439 157.740,158.617 156.200 C 157.158 153.464,155.077 149.512,149.982 139.800 C 145.669 131.579,144.564 129.489,143.001 126.600 C 142.167 125.060,140.733 122.360,139.814 120.600 C 137.527 116.223,137.226 115.788,135.971 115.047 C 134.637 114.259,132.952 114.241,131.557 114.999 M85.303 233.612 C 84.031 234.123,83.143 235.766,81.015 241.541 C 79.166 246.559,77.020 252.262,76.402 253.800 C 76.225 254.240,75.864 255.230,75.600 256.000 C 75.336 256.770,74.976 257.760,74.800 258.200 C 74.624 258.640,74.264 259.630,74.000 260.400 C 73.736 261.170,73.375 262.160,73.199 262.600 C 73.022 263.040,72.518 264.390,72.079 265.600 C 70.988 268.602,68.893 274.173,67.943 276.600 C 66.248 280.926,66.764 283.926,69.409 285.131 C 70.930 285.824,111.408 285.784,112.800 285.088 C 113.350 284.813,114.241 283.756,114.780 282.738 L 115.761 280.888 113.864 277.144 C 112.820 275.085,111.345 272.262,110.586 270.872 C 109.827 269.482,108.461 266.962,107.550 265.272 C 106.639 263.582,104.953 260.490,103.805 258.400 C 102.656 256.310,100.759 252.800,99.590 250.600 C 93.326 238.813,91.377 235.320,90.671 234.614 C 89.313 233.256,87.178 232.858,85.303 233.612 " stroke="none" fill="#fbfbfb" fill-rule="evenodd"></path><path id="path1" d="M0.000 200.000 L 0.000 400.000 200.000 400.000 L 400.000 400.000 400.000 200.000 L 400.000 0.000 200.000 0.000 L 0.000 0.000 0.000 200.000 M136.636 114.709 C 137.858 115.720,138.841 117.273,141.506 122.406 C 142.818 124.933,144.427 127.990,145.081 129.200 C 145.735 130.410,147.404 133.560,148.791 136.200 C 150.178 138.840,152.122 142.530,153.112 144.400 C 154.102 146.270,155.832 149.600,156.956 151.800 C 158.080 154.000,159.091 155.890,159.202 156.000 C 159.314 156.110,159.956 157.280,160.631 158.600 C 161.305 159.920,162.724 162.620,163.784 164.600 C 164.845 166.580,166.703 170.090,167.915 172.400 C 170.242 176.838,172.470 181.065,175.346 186.500 C 176.307 188.315,177.995 191.522,179.098 193.626 C 180.202 195.730,181.732 198.610,182.499 200.026 C 184.462 203.648,189.046 212.402,190.969 216.200 C 191.860 217.960,192.685 219.490,192.802 219.600 C 192.920 219.710,193.633 221.032,194.387 222.537 L 195.757 225.274 198.916 217.137 C 200.653 212.662,202.214 208.640,202.384 208.200 C 202.554 207.760,202.897 206.905,203.146 206.300 C 203.396 205.695,203.780 204.750,204.000 204.200 C 204.979 201.753,205.316 200.955,205.647 200.305 C 205.841 199.923,206.000 199.420,206.000 199.186 C 206.000 198.952,206.335 198.069,206.744 197.222 C 207.152 196.376,207.732 194.855,208.031 193.842 C 208.330 192.829,208.715 192.000,208.887 192.000 C 209.059 192.000,209.200 191.674,209.200 191.275 C 209.200 190.876,209.560 189.805,210.000 188.894 C 210.440 187.984,210.800 187.048,210.800 186.814 C 210.800 186.580,210.959 186.077,211.153 185.695 C 211.527 184.960,212.276 183.201,212.854 181.700 C 213.044 181.205,213.365 180.395,213.566 179.900 C 213.767 179.405,215.490 174.950,217.395 170.000 C 221.086 160.410,221.246 160.000,221.946 158.300 C 222.196 157.695,222.580 156.750,222.800 156.200 C 223.020 155.650,223.404 154.705,223.654 154.100 C 223.903 153.495,224.263 152.595,224.454 152.100 C 224.644 151.605,224.956 150.795,225.146 150.300 C 225.724 148.799,226.473 147.040,226.847 146.305 C 227.041 145.923,227.200 145.426,227.200 145.201 C 227.200 144.976,227.540 144.028,227.955 143.096 C 228.370 142.163,229.256 139.960,229.925 138.200 C 239.162 113.867,239.091 114.000,243.019 114.000 C 246.107 114.000,247.214 115.185,251.047 122.600 C 252.754 125.900,254.744 129.680,255.470 131.000 C 256.196 132.320,257.460 134.750,258.277 136.400 C 259.095 138.050,259.863 139.490,259.984 139.600 C 260.106 139.710,260.757 140.880,261.432 142.200 C 262.107 143.520,263.658 146.490,264.879 148.800 C 266.100 151.110,268.180 155.070,269.503 157.600 C 270.825 160.130,272.584 163.460,273.411 165.000 C 275.446 168.790,277.837 173.321,280.587 178.600 C 281.848 181.020,283.468 184.080,284.188 185.400 C 284.907 186.720,286.582 189.870,287.909 192.400 C 293.254 202.591,294.537 205.020,298.684 212.800 C 301.671 218.405,305.743 226.189,307.369 229.400 C 308.260 231.160,309.082 232.690,309.197 232.800 C 309.311 232.910,309.957 234.080,310.631 235.400 C 311.305 236.720,312.815 239.600,313.987 241.800 C 317.844 249.046,319.052 251.348,321.439 256.000 C 322.737 258.530,323.892 260.690,324.005 260.800 C 324.119 260.910,324.948 262.440,325.849 264.200 C 326.750 265.960,328.343 269.020,329.389 271.000 C 334.533 280.737,334.652 281.126,333.218 283.478 C 331.506 286.286,332.125 286.202,313.216 286.183 C 294.983 286.164,294.241 286.100,288.200 284.008 C 284.871 282.855,279.695 280.304,278.493 279.224 C 278.112 278.881,277.169 278.119,276.400 277.530 C 274.001 275.696,271.826 273.500,269.735 270.800 C 267.091 267.387,265.497 264.585,259.832 253.400 C 258.941 251.640,258.115 250.110,257.998 250.000 C 257.881 249.890,256.875 248.000,255.763 245.800 C 254.651 243.600,252.655 239.730,251.326 237.200 C 249.998 234.670,247.693 230.260,246.204 227.400 C 243.460 222.130,240.685 216.815,236.704 209.200 C 235.496 206.890,233.178 202.390,231.554 199.200 C 229.929 196.010,228.502 193.310,228.381 193.200 C 228.261 193.090,227.672 192.010,227.073 190.800 C 226.474 189.590,225.485 187.680,224.875 186.556 L 223.766 184.513 223.283 185.536 C 223.017 186.099,222.800 186.706,222.800 186.884 C 222.800 187.063,222.456 187.972,222.036 188.904 C 221.616 189.837,219.979 193.930,218.399 198.000 C 216.818 202.070,215.253 206.030,214.922 206.800 C 214.590 207.570,214.157 208.605,213.959 209.100 C 213.762 209.595,213.420 210.450,213.200 211.000 C 212.980 211.550,212.644 212.405,212.454 212.900 C 212.263 213.395,211.903 214.295,211.654 214.900 C 211.404 215.505,211.044 216.405,210.854 216.900 C 210.663 217.395,210.303 218.295,210.054 218.900 C 209.804 219.505,209.396 220.495,209.146 221.100 C 208.897 221.705,208.561 222.560,208.400 223.000 C 208.078 223.879,207.551 225.208,206.854 226.900 C 206.604 227.505,206.220 228.450,206.000 229.000 C 205.780 229.550,205.396 230.495,205.146 231.100 C 204.897 231.705,204.555 232.560,204.387 233.000 C 204.219 233.440,203.727 234.700,203.294 235.800 L 202.506 237.800 204.950 242.600 C 206.295 245.240,207.488 247.490,207.603 247.600 C 207.718 247.710,208.547 249.240,209.445 251.000 C 210.344 252.760,211.709 255.370,212.478 256.800 C 214.802 261.120,218.589 268.350,220.858 272.800 C 222.036 275.110,223.090 277.090,223.200 277.200 C 226.395 280.395,223.855 285.695,218.873 286.228 C 214.167 286.732,186.511 286.118,183.572 285.445 C 174.272 283.313,163.466 276.314,159.742 270.010 C 159.349 269.345,158.886 268.800,158.714 268.800 C 158.541 268.800,158.400 268.603,158.400 268.362 C 158.400 268.121,158.026 267.398,157.568 266.756 C 157.111 266.113,156.061 264.286,155.235 262.694 C 154.409 261.102,152.554 257.550,151.112 254.800 C 149.671 252.050,147.346 247.550,145.946 244.800 C 144.546 242.050,143.307 239.710,143.194 239.600 C 143.081 239.490,142.257 237.960,141.363 236.200 C 140.469 234.440,138.558 230.750,137.117 228.000 C 135.675 225.250,133.169 220.390,131.548 217.200 C 129.927 214.010,128.507 211.310,128.394 211.200 C 128.281 211.090,127.458 209.560,126.565 207.800 C 125.672 206.040,123.854 202.530,122.525 200.000 C 117.417 190.276,113.766 183.248,111.823 179.400 C 110.712 177.200,109.667 175.340,109.501 175.267 C 109.336 175.193,109.200 174.788,109.200 174.367 C 109.200 173.945,109.020 173.600,108.800 173.600 C 108.306 173.600,108.269 169.847,108.753 168.895 C 109.229 167.960,109.818 166.493,110.400 164.800 C 110.952 163.191,111.308 162.250,111.946 160.700 C 112.196 160.095,112.604 159.105,112.854 158.500 C 113.580 156.738,113.852 156.035,115.520 151.600 C 121.500 135.703,121.378 136.019,122.047 134.705 C 122.241 134.323,122.400 133.826,122.400 133.601 C 122.400 133.376,122.739 132.428,123.153 131.496 C 123.567 130.563,124.125 129.170,124.393 128.400 C 125.105 126.357,125.797 124.574,126.800 122.200 C 127.079 121.540,127.445 120.640,127.613 120.200 C 129.804 114.464,133.570 112.173,136.636 114.709 M90.953 234.124 C 91.639 234.852,92.648 236.337,93.195 237.424 C 93.742 238.511,94.282 239.490,94.395 239.600 C 94.508 239.710,94.973 240.520,95.429 241.400 C 96.485 243.436,99.776 249.594,101.201 252.200 C 102.420 254.429,104.343 257.988,106.606 262.200 C 107.433 263.740,108.600 265.900,109.200 267.000 C 110.751 269.844,112.970 273.968,114.600 277.033 C 116.970 281.490,115.847 285.091,111.800 286.016 C 109.771 286.479,72.811 286.483,70.411 286.020 C 65.725 285.116,65.300 282.022,68.624 273.022 C 72.079 263.669,72.456 262.656,72.799 261.800 C 72.975 261.360,73.336 260.370,73.600 259.600 C 74.182 257.907,74.771 256.440,75.247 255.505 C 75.441 255.123,75.600 254.536,75.600 254.200 C 75.600 253.864,75.759 253.277,75.953 252.895 C 76.429 251.960,77.018 250.493,77.600 248.800 C 77.864 248.030,78.267 246.950,78.494 246.400 C 79.088 244.962,79.454 243.989,80.000 242.400 C 80.264 241.630,80.625 240.640,80.801 240.200 C 80.978 239.760,81.521 238.363,82.010 237.095 C 83.730 232.626,88.157 231.156,90.953 234.124 " stroke="none" fill="#141414" fill-rule="evenodd"></path><path id="path2" d="M243.266 114.377 C 244.878 114.691,246.800 115.796,246.800 116.409 C 246.800 116.624,247.008 116.800,247.262 116.800 C 247.916 116.800,246.413 115.227,245.121 114.559 C 244.526 114.252,243.536 114.021,242.920 114.046 C 241.949 114.086,241.995 114.130,243.266 114.377 M130.892 115.021 C 130.405 115.362,129.809 116.037,129.568 116.521 C 129.203 117.252,129.286 117.223,130.064 116.343 C 130.579 115.761,131.360 115.092,131.800 114.855 C 132.240 114.618,132.415 114.419,132.189 114.412 C 131.963 114.405,131.379 114.679,130.892 115.021 M239.729 115.700 C 239.284 116.195,238.776 116.870,238.601 117.200 C 238.263 117.837,238.355 117.750,239.976 115.900 C 240.506 115.295,240.849 114.800,240.739 114.800 C 240.629 114.800,240.175 115.205,239.729 115.700 M137.215 115.800 C 137.217 116.020,137.586 116.650,138.036 117.200 C 138.579 117.864,138.715 117.931,138.440 117.400 C 137.766 116.095,137.212 115.372,137.215 115.800 M139.600 120.109 C 139.600 120.482,142.056 124.948,142.509 125.400 C 142.730 125.620,142.241 124.540,141.422 123.000 C 139.918 120.172,139.600 119.668,139.600 120.109 M251.600 125.200 C 252.049 126.080,252.506 126.800,252.616 126.800 C 252.726 126.800,252.449 126.080,252.000 125.200 C 251.551 124.320,251.094 123.600,250.984 123.600 C 250.874 123.600,251.151 124.320,251.600 125.200 M256.806 134.850 C 256.797 135.205,258.833 138.800,259.042 138.800 C 259.138 138.800,258.860 138.125,258.424 137.300 C 257.478 135.511,256.815 134.506,256.806 134.850 M230.050 138.650 C 229.573 139.896,229.250 140.984,229.333 141.066 C 229.415 141.149,229.873 140.196,230.350 138.950 C 230.827 137.704,231.150 136.616,231.067 136.534 C 230.985 136.451,230.527 137.404,230.050 138.650 M260.809 142.700 C 260.814 142.865,261.185 143.450,261.633 144.000 L 262.448 145.000 261.814 143.700 C 261.211 142.465,260.789 142.045,260.809 142.700 M154.000 147.600 C 154.449 148.480,154.906 149.200,155.016 149.200 C 155.126 149.200,154.849 148.480,154.400 147.600 C 153.951 146.720,153.494 146.000,153.384 146.000 C 153.274 146.000,153.551 146.720,154.000 147.600 M115.250 153.050 C 114.773 154.296,114.450 155.384,114.533 155.466 C 114.615 155.549,115.073 154.596,115.550 153.350 C 116.027 152.104,116.350 151.016,116.267 150.934 C 116.185 150.851,115.727 151.804,115.250 153.050 M157.200 153.600 C 157.649 154.480,158.106 155.200,158.216 155.200 C 158.326 155.200,158.049 154.480,157.600 153.600 C 157.151 152.720,156.694 152.000,156.584 152.000 C 156.474 152.000,156.751 152.720,157.200 153.600 M159.215 157.400 C 159.217 157.620,159.586 158.250,160.036 158.800 C 160.579 159.464,160.715 159.531,160.440 159.000 C 159.766 157.695,159.212 156.972,159.215 157.400 M111.077 163.877 C 110.700 164.893,110.458 165.791,110.538 165.872 C 110.619 165.952,111.000 165.193,111.385 164.185 C 111.770 163.176,112.012 162.279,111.923 162.190 C 111.835 162.101,111.454 162.860,111.077 163.877 M275.615 170.600 C 275.617 170.820,275.986 171.450,276.436 172.000 C 276.979 172.664,277.115 172.731,276.840 172.200 C 276.166 170.895,275.612 170.172,275.615 170.600 M169.040 176.002 C 169.639 177.103,170.193 177.940,170.271 177.863 C 170.443 177.690,168.408 174.000,168.141 174.000 C 168.036 174.000,168.440 174.901,169.040 176.002 M111.200 177.600 C 111.649 178.480,112.106 179.200,112.216 179.200 C 112.326 179.200,112.049 178.480,111.600 177.600 C 111.151 176.720,110.694 176.000,110.584 176.000 C 110.474 176.000,110.751 176.720,111.200 177.600 M172.000 181.600 C 172.449 182.480,172.906 183.200,173.016 183.200 C 173.126 183.200,172.849 182.480,172.400 181.600 C 171.951 180.720,171.494 180.000,171.384 180.000 C 171.274 180.000,171.551 180.720,172.000 181.600 M223.256 184.300 C 222.524 185.676,220.804 190.137,220.949 190.283 C 221.031 190.364,221.680 188.985,222.392 187.219 C 223.159 185.318,223.858 184.112,224.105 184.265 C 224.349 184.416,224.404 184.331,224.238 184.062 C 223.853 183.439,223.693 183.478,223.256 184.300 M211.667 185.580 C 211.433 186.251,211.327 186.800,211.431 186.800 C 211.701 186.800,212.456 184.722,212.257 184.524 C 212.167 184.433,211.901 184.908,211.667 185.580 M285.400 189.200 C 285.957 190.300,286.503 191.200,286.613 191.200 C 286.723 191.200,286.357 190.300,285.800 189.200 C 285.243 188.100,284.697 187.200,284.587 187.200 C 284.477 187.200,284.843 188.100,285.400 189.200 M220.067 191.980 C 219.833 192.651,219.727 193.200,219.831 193.200 C 220.101 193.200,220.856 191.122,220.657 190.924 C 220.567 190.833,220.301 191.308,220.067 191.980 M178.000 192.990 C 178.000 193.095,178.359 193.770,178.799 194.490 C 179.738 196.031,179.869 195.681,178.990 193.980 C 178.441 192.919,178.000 192.478,178.000 192.990 M288.400 194.800 C 288.849 195.680,289.306 196.400,289.416 196.400 C 289.526 196.400,289.249 195.680,288.800 194.800 C 288.351 193.920,287.894 193.200,287.784 193.200 C 287.674 193.200,287.951 193.920,288.400 194.800 M234.200 203.600 C 234.541 204.260,234.911 204.800,235.021 204.800 C 235.131 204.800,234.941 204.260,234.600 203.600 C 234.259 202.940,233.889 202.400,233.779 202.400 C 233.669 202.400,233.859 202.940,234.200 203.600 M184.200 204.800 C 184.541 205.460,184.911 206.000,185.021 206.000 C 185.131 206.000,184.941 205.460,184.600 204.800 C 184.259 204.140,183.889 203.600,183.779 203.600 C 183.669 203.600,183.859 204.140,184.200 204.800 M187.600 211.200 C 188.049 212.080,188.506 212.800,188.616 212.800 C 188.726 212.800,188.449 212.080,188.000 211.200 C 187.551 210.320,187.094 209.600,186.984 209.600 C 186.874 209.600,187.151 210.320,187.600 211.200 M130.000 213.600 C 130.449 214.480,130.906 215.200,131.016 215.200 C 131.126 215.200,130.849 214.480,130.400 213.600 C 129.951 212.720,129.494 212.000,129.384 212.000 C 129.274 212.000,129.551 212.720,130.000 213.600 M189.615 215.000 C 189.617 215.220,189.986 215.850,190.436 216.400 C 190.979 217.064,191.115 217.131,190.840 216.600 C 190.166 215.295,189.612 214.572,189.615 215.000 M300.600 218.000 C 300.941 218.660,301.311 219.200,301.421 219.200 C 301.531 219.200,301.341 218.660,301.000 218.000 C 300.659 217.340,300.289 216.800,300.179 216.800 C 300.069 216.800,300.259 217.340,300.600 218.000 M198.258 219.704 C 197.328 222.140,197.480 222.604,198.436 220.247 C 198.872 219.173,199.158 218.224,199.072 218.138 C 198.986 218.052,198.620 218.757,198.258 219.704 M134.200 221.600 C 134.541 222.260,134.911 222.800,135.021 222.800 C 135.131 222.800,134.941 222.260,134.600 221.600 C 134.259 220.940,133.889 220.400,133.779 220.400 C 133.669 220.400,133.859 220.940,134.200 221.600 M304.000 224.400 C 304.449 225.280,304.906 226.000,305.016 226.000 C 305.126 226.000,304.849 225.280,304.400 224.400 C 303.951 223.520,303.494 222.800,303.384 222.800 C 303.274 222.800,303.551 223.520,304.000 224.400 M246.000 226.096 C 246.000 226.513,247.740 229.593,247.891 229.442 C 247.973 229.361,247.651 228.598,247.177 227.747 C 246.251 226.087,246.000 225.735,246.000 226.096 M307.200 230.400 C 307.649 231.280,308.106 232.000,308.216 232.000 C 308.326 232.000,308.049 231.280,307.600 230.400 C 307.151 229.520,306.694 228.800,306.584 228.800 C 306.474 228.800,306.751 229.520,307.200 230.400 M204.379 231.055 C 204.158 231.636,204.052 232.185,204.143 232.276 C 204.233 232.367,204.499 231.892,204.733 231.220 C 205.253 229.728,204.939 229.582,204.379 231.055 M248.800 231.600 C 249.249 232.480,249.706 233.200,249.816 233.200 C 249.926 233.200,249.649 232.480,249.200 231.600 C 248.751 230.720,248.294 230.000,248.184 230.000 C 248.074 230.000,248.351 230.720,248.800 231.600 M85.735 233.108 C 85.479 233.271,86.136 233.403,87.195 233.402 C 88.254 233.401,89.038 233.265,88.937 233.100 C 88.701 232.715,86.344 232.721,85.735 233.108 M140.600 234.000 C 140.941 234.660,141.311 235.200,141.421 235.200 C 141.531 235.200,141.341 234.660,141.000 234.000 C 140.659 233.340,140.289 232.800,140.179 232.800 C 140.069 232.800,140.259 233.340,140.600 234.000 M83.878 234.314 C 83.147 235.121,81.194 239.366,81.211 240.111 C 81.217 240.380,81.750 239.362,82.395 237.849 C 83.040 236.336,83.873 234.761,84.246 234.349 C 84.619 233.937,84.834 233.600,84.724 233.600 C 84.614 233.600,84.233 233.921,83.878 234.314 M92.015 236.600 C 92.017 236.820,92.386 237.450,92.836 238.000 C 93.379 238.664,93.515 238.731,93.240 238.200 C 92.566 236.895,92.012 236.172,92.015 236.600 M202.760 239.800 C 203.434 241.105,203.988 241.828,203.985 241.400 C 203.983 241.180,203.614 240.550,203.164 240.000 C 202.621 239.336,202.485 239.269,202.760 239.800 M80.258 242.504 C 79.328 244.940,79.480 245.404,80.436 243.047 C 80.872 241.973,81.158 241.024,81.072 240.938 C 80.986 240.852,80.620 241.557,80.258 242.504 M78.277 247.877 C 77.900 248.893,77.658 249.791,77.738 249.872 C 77.819 249.952,78.200 249.193,78.585 248.185 C 78.970 247.176,79.212 246.279,79.123 246.190 C 79.035 246.101,78.654 246.860,78.277 247.877 M148.800 249.600 C 149.249 250.480,149.706 251.200,149.816 251.200 C 149.926 251.200,149.649 250.480,149.200 249.600 C 148.751 248.720,148.294 248.000,148.184 248.000 C 148.074 248.000,148.351 248.720,148.800 249.600 M208.415 250.600 C 208.417 250.820,208.786 251.450,209.236 252.000 C 209.779 252.664,209.915 252.731,209.640 252.200 C 208.966 250.895,208.412 250.172,208.415 250.600 M259.400 252.000 C 259.741 252.660,260.111 253.200,260.221 253.200 C 260.331 253.200,260.141 252.660,259.800 252.000 C 259.459 251.340,259.089 250.800,258.979 250.800 C 258.869 250.800,259.059 251.340,259.400 252.000 M319.040 252.802 C 319.639 253.903,320.193 254.740,320.271 254.663 C 320.443 254.490,318.408 250.800,318.141 250.800 C 318.036 250.800,318.440 251.701,319.040 252.802 M101.800 254.800 C 102.357 255.900,102.903 256.800,103.013 256.800 C 103.123 256.800,102.757 255.900,102.200 254.800 C 101.643 253.700,101.097 252.800,100.987 252.800 C 100.877 252.800,101.243 253.700,101.800 254.800 M322.800 260.000 C 323.249 260.880,323.706 261.600,323.816 261.600 C 323.926 261.600,323.649 260.880,323.200 260.000 C 322.751 259.120,322.294 258.400,322.184 258.400 C 322.074 258.400,322.351 259.120,322.800 260.000 M264.400 261.600 C 264.849 262.480,265.306 263.200,265.416 263.200 C 265.526 263.200,265.249 262.480,264.800 261.600 C 264.351 260.720,263.894 260.000,263.784 260.000 C 263.674 260.000,263.951 260.720,264.400 261.600 M265.615 263.800 C 265.617 264.020,265.986 264.650,266.436 265.200 C 266.979 265.864,267.115 265.931,266.840 265.400 C 266.166 264.095,265.612 263.372,265.615 263.800 M324.815 263.800 C 324.817 264.020,325.186 264.650,325.636 265.200 C 326.179 265.864,326.315 265.931,326.040 265.400 C 325.366 264.095,324.812 263.372,324.815 263.800 M109.000 268.000 C 109.341 268.660,109.711 269.200,109.821 269.200 C 109.931 269.200,109.741 268.660,109.400 268.000 C 109.059 267.340,108.689 266.800,108.579 266.800 C 108.469 266.800,108.659 267.340,109.000 268.000 M158.677 268.031 C 159.075 268.708,159.656 269.473,159.968 269.731 C 160.280 269.989,160.032 269.435,159.415 268.500 C 158.120 266.537,157.609 266.212,158.677 268.031 M217.800 268.400 C 218.141 269.060,218.511 269.600,218.621 269.600 C 218.731 269.600,218.541 269.060,218.200 268.400 C 217.859 267.740,217.489 267.200,217.379 267.200 C 217.269 267.200,217.459 267.740,217.800 268.400 M268.580 268.600 C 268.905 269.260,270.005 270.700,271.025 271.800 L 272.878 273.800 270.939 271.351 C 269.873 270.005,268.772 268.565,268.494 268.151 C 268.216 267.738,268.255 267.940,268.580 268.600 M162.394 272.716 C 163.333 273.880,164.173 274.761,164.260 274.673 C 164.347 274.586,163.579 273.634,162.552 272.557 L 160.686 270.600 162.394 272.716 M274.600 275.600 C 275.459 276.480,276.252 277.200,276.362 277.200 C 276.472 277.200,275.859 276.480,275.000 275.600 C 274.141 274.720,273.348 274.000,273.238 274.000 C 273.128 274.000,273.741 274.720,274.600 275.600 M165.724 275.877 C 166.060 276.421,169.200 278.955,169.200 278.682 C 169.200 278.580,168.353 277.803,167.319 276.955 C 166.284 276.107,165.566 275.622,165.724 275.877 M278.269 278.432 C 278.766 279.033,281.200 280.564,281.200 280.276 C 281.200 280.183,280.435 279.602,279.500 278.985 C 278.565 278.368,278.011 278.120,278.269 278.432 M66.643 279.433 C 65.996 281.119,67.519 285.200,68.795 285.200 C 68.997 285.200,68.716 284.719,68.171 284.131 C 66.993 282.860,66.620 281.600,66.943 279.985 C 67.199 278.707,67.036 278.408,66.643 279.433 M333.264 280.667 C 333.229 281.364,333.096 282.264,332.970 282.667 C 332.753 283.359,332.765 283.360,333.194 282.691 C 333.445 282.302,333.577 281.402,333.489 280.691 L 333.328 279.400 333.264 280.667 M115.200 281.878 C 115.200 282.103,114.728 282.984,114.152 283.833 C 113.575 284.683,113.407 285.126,113.778 284.818 C 114.619 284.120,115.738 282.005,115.429 281.696 C 115.303 281.570,115.200 281.652,115.200 281.878 M223.600 282.303 C 223.600 282.542,223.111 283.337,222.514 284.069 C 221.621 285.164,221.592 285.259,222.351 284.604 C 223.429 283.675,224.165 282.431,223.832 282.099 C 223.705 281.971,223.600 282.063,223.600 282.303 M182.600 284.800 C 183.040 284.989,183.760 285.138,184.200 285.132 C 184.843 285.123,184.804 285.057,184.000 284.800 C 182.632 284.362,181.581 284.362,182.600 284.800 M292.200 284.800 C 292.640 284.989,293.270 285.144,293.600 285.144 C 293.978 285.144,293.904 285.017,293.400 284.800 C 292.960 284.611,292.330 284.456,292.000 284.456 C 291.622 284.456,291.696 284.583,292.200 284.800 M91.200 285.600 L 70.200 285.811 91.000 285.899 C 103.908 285.954,112.028 285.841,112.400 285.600 C 112.730 285.387,112.820 285.252,112.600 285.301 C 112.380 285.349,102.750 285.484,91.200 285.600 M313.800 285.600 L 297.400 285.813 313.600 285.901 C 323.536 285.954,330.032 285.838,330.400 285.600 C 330.730 285.387,330.820 285.251,330.600 285.299 C 330.380 285.347,322.820 285.483,313.800 285.600 M196.127 285.900 C 200.707 285.964,208.087 285.964,212.527 285.899 C 216.967 285.835,213.220 285.783,204.200 285.783 C 195.180 285.783,191.547 285.835,196.127 285.900 " stroke="none" fill="#8c8c8c" fill-rule="evenodd"></path><path id="path3" d="" stroke="none" fill="#848484" fill-rule="evenodd"></path><path id="path4" d="M245.628 114.907 C 246.369 115.406,247.509 116.752,248.163 117.898 C 248.817 119.044,249.411 119.923,249.482 119.851 C 250.101 119.232,245.835 114.000,244.710 114.000 C 244.475 114.000,244.888 114.408,245.628 114.907 M238.784 116.023 C 238.305 116.696,237.979 117.313,238.061 117.394 C 238.143 117.476,238.614 116.926,239.108 116.171 C 240.223 114.471,239.971 114.356,238.784 116.023 M236.452 121.252 C 235.751 123.044,235.243 124.577,235.325 124.658 C 235.406 124.739,236.046 123.340,236.748 121.548 C 237.449 119.756,237.957 118.223,237.875 118.142 C 237.794 118.061,237.154 119.460,236.452 121.252 M146.640 132.802 C 147.239 133.903,147.793 134.740,147.871 134.663 C 148.043 134.490,146.008 130.800,145.741 130.800 C 145.636 130.800,146.040 131.701,146.640 132.802 M119.650 140.650 C 119.173 141.896,118.850 142.984,118.933 143.066 C 119.015 143.149,119.473 142.196,119.950 140.950 C 120.427 139.704,120.750 138.616,120.667 138.534 C 120.585 138.451,120.127 139.404,119.650 140.650 M263.040 146.002 C 263.639 147.103,264.193 147.940,264.271 147.863 C 264.443 147.690,262.408 144.000,262.141 144.000 C 262.036 144.000,262.440 144.901,263.040 146.002 M264.717 149.100 C 265.288 150.469,266.819 153.200,267.017 153.200 C 267.127 153.200,266.655 152.120,265.968 150.800 C 264.788 148.532,264.080 147.570,264.717 149.100 M217.480 169.680 C 216.876 171.239,216.446 172.580,216.526 172.660 C 216.606 172.740,217.170 171.534,217.780 169.980 C 218.390 168.426,218.819 167.085,218.734 167.000 C 218.649 166.915,218.084 168.121,217.480 169.680 M167.800 172.800 C 168.141 173.460,168.511 174.000,168.621 174.000 C 168.731 174.000,168.541 173.460,168.200 172.800 C 167.859 172.140,167.489 171.600,167.379 171.600 C 167.269 171.600,167.459 172.140,167.800 172.800 M277.960 174.200 C 278.634 175.505,279.188 176.228,279.185 175.800 C 279.183 175.580,278.814 174.950,278.364 174.400 C 277.821 173.736,277.685 173.669,277.960 174.200 M283.606 184.850 C 283.597 185.205,285.633 188.800,285.842 188.800 C 285.938 188.800,285.660 188.125,285.224 187.300 C 284.278 185.511,283.615 184.506,283.606 184.850 M225.400 187.600 C 225.741 188.260,226.111 188.800,226.221 188.800 C 226.331 188.800,226.141 188.260,225.800 187.600 C 225.459 186.940,225.089 186.400,224.979 186.400 C 224.869 186.400,225.059 186.940,225.400 187.600 M116.404 188.200 C 116.405 188.420,116.763 189.140,117.200 189.800 C 118.236 191.364,118.237 190.808,117.201 189.110 C 116.762 188.389,116.404 187.980,116.404 188.200 M176.804 189.800 C 176.805 190.020,177.163 190.740,177.600 191.400 C 178.636 192.964,178.637 192.408,177.601 190.710 C 177.162 189.989,176.804 189.580,176.804 189.800 M121.200 197.600 C 121.649 198.480,122.106 199.200,122.216 199.200 C 122.326 199.200,122.049 198.480,121.600 197.600 C 121.151 196.720,120.694 196.000,120.584 196.000 C 120.474 196.000,120.751 196.720,121.200 197.600 M183.200 202.000 C 183.649 202.880,184.106 203.600,184.216 203.600 C 184.326 203.600,184.049 202.880,183.600 202.000 C 183.151 201.120,182.694 200.400,182.584 200.400 C 182.474 200.400,182.751 201.120,183.200 202.000 M216.491 201.880 C 216.270 202.496,215.697 203.990,215.216 205.200 C 214.736 206.410,214.509 207.220,214.712 207.000 C 215.220 206.449,217.276 201.143,217.064 200.931 C 216.970 200.836,216.712 201.263,216.491 201.880 M123.203 201.290 C 123.201 201.450,123.559 202.170,123.999 202.890 C 124.438 203.611,124.796 204.020,124.796 203.800 C 124.795 203.580,124.437 202.860,124.000 202.200 C 123.563 201.540,123.204 201.131,123.203 201.290 M235.200 206.400 C 235.649 207.280,236.106 208.000,236.216 208.000 C 236.326 208.000,236.049 207.280,235.600 206.400 C 235.151 205.520,234.694 204.800,234.584 204.800 C 234.474 204.800,234.751 205.520,235.200 206.400 M186.600 208.400 C 186.941 209.060,187.311 209.600,187.421 209.600 C 187.531 209.600,187.341 209.060,187.000 208.400 C 186.659 207.740,186.289 207.200,186.179 207.200 C 186.069 207.200,186.259 207.740,186.600 208.400 M296.760 209.800 C 297.434 211.105,297.988 211.828,297.985 211.400 C 297.983 211.180,297.614 210.550,297.164 210.000 C 296.621 209.336,296.485 209.269,296.760 209.800 M238.006 211.650 C 237.997 212.005,240.033 215.600,240.242 215.600 C 240.338 215.600,240.060 214.925,239.624 214.100 C 238.678 212.311,238.015 211.306,238.006 211.650 M299.600 215.200 C 300.049 216.080,300.506 216.800,300.616 216.800 C 300.726 216.800,300.449 216.080,300.000 215.200 C 299.551 214.320,299.094 213.600,298.984 213.600 C 298.874 213.600,299.151 214.320,299.600 215.200 M303.000 221.600 C 303.341 222.260,303.711 222.800,303.821 222.800 C 303.931 222.800,303.741 222.260,303.400 221.600 C 303.059 220.940,302.689 220.400,302.579 220.400 C 302.469 220.400,302.659 220.940,303.000 221.600 M135.200 224.400 C 135.649 225.280,136.106 226.000,136.216 226.000 C 136.326 226.000,136.049 225.280,135.600 224.400 C 135.151 223.520,134.694 222.800,134.584 222.800 C 134.474 222.800,134.751 223.520,135.200 224.400 M136.400 226.499 C 136.400 226.882,139.657 232.968,140.093 233.400 C 140.315 233.620,139.651 232.181,138.617 230.202 C 136.758 226.644,136.400 226.046,136.400 226.499 M84.087 233.900 C 83.130 234.835,83.114 234.881,83.981 234.206 C 85.688 232.876,85.769 232.800,85.486 232.800 C 85.336 232.800,84.706 233.295,84.087 233.900 M89.400 233.268 C 89.840 233.512,90.479 233.912,90.820 234.156 C 91.160 234.400,91.015 234.195,90.497 233.700 C 89.979 233.205,89.340 232.805,89.078 232.812 C 88.815 232.819,88.960 233.024,89.400 233.268 M250.000 234.553 C 250.000 234.982,251.190 237.200,251.421 237.200 C 251.531 237.200,251.323 236.615,250.959 235.900 C 250.217 234.440,250.000 234.136,250.000 234.553 M312.240 239.202 C 312.839 240.303,313.393 241.140,313.471 241.063 C 313.643 240.890,311.608 237.200,311.341 237.200 C 311.236 237.200,311.640 238.101,312.240 239.202 M96.640 244.402 C 97.239 245.503,97.793 246.340,97.871 246.263 C 98.043 246.090,96.008 242.400,95.741 242.400 C 95.636 242.400,96.040 243.301,96.640 244.402 M315.632 245.600 C 316.812 247.868,317.520 248.830,316.883 247.300 C 316.312 245.931,314.781 243.200,314.583 243.200 C 314.473 243.200,314.945 244.280,315.632 245.600 M98.800 248.400 C 99.249 249.280,99.706 250.000,99.816 250.000 C 99.926 250.000,99.649 249.280,99.200 248.400 C 98.751 247.520,98.294 246.800,98.184 246.800 C 98.074 246.800,98.351 247.520,98.800 248.400 M256.969 248.000 C 257.096 248.330,257.311 248.915,257.446 249.300 C 257.582 249.685,257.859 250.000,258.061 250.000 C 258.424 250.000,258.075 249.206,257.183 248.000 C 256.788 247.467,256.765 247.467,256.969 248.000 M317.215 248.600 C 317.217 248.820,317.586 249.450,318.036 250.000 C 318.579 250.664,318.715 250.731,318.440 250.200 C 317.766 248.895,317.212 248.172,317.215 248.600 M101.400 253.200 C 101.741 253.860,102.111 254.400,102.221 254.400 C 102.331 254.400,102.141 253.860,101.800 253.200 C 101.459 252.540,101.089 252.000,100.979 252.000 C 100.869 252.000,101.059 252.540,101.400 253.200 M150.000 252.553 C 150.000 252.982,151.190 255.200,151.421 255.200 C 151.531 255.200,151.323 254.615,150.959 253.900 C 150.217 252.440,150.000 252.136,150.000 252.553 M214.234 260.811 C 215.046 262.357,215.773 263.561,215.848 263.485 C 216.022 263.312,213.216 258.000,212.951 258.000 C 212.844 258.000,213.421 259.265,214.234 260.811 M264.000 261.353 C 264.000 261.782,265.190 264.000,265.421 264.000 C 265.531 264.000,265.323 263.415,264.959 262.700 C 264.217 261.240,264.000 260.936,264.000 261.353 M156.015 264.200 C 156.017 264.420,156.386 265.050,156.836 265.600 C 157.379 266.264,157.515 266.331,157.240 265.800 C 156.566 264.495,156.012 263.772,156.015 264.200 M266.200 265.600 C 266.541 266.260,266.911 266.800,267.021 266.800 C 267.131 266.800,266.941 266.260,266.600 265.600 C 266.259 264.940,265.889 264.400,265.779 264.400 C 265.669 264.400,265.859 264.940,266.200 265.600 M327.386 267.900 C 327.735 268.615,328.106 269.200,328.210 269.200 C 328.608 269.200,328.352 268.563,327.567 267.600 L 326.752 266.600 327.386 267.900 M269.424 270.382 C 270.391 271.789,271.999 273.638,271.988 273.331 C 271.981 273.149,271.306 272.272,270.488 271.382 C 269.670 270.493,269.191 270.043,269.424 270.382 M113.040 274.802 C 113.639 275.903,114.193 276.740,114.271 276.663 C 114.443 276.490,112.408 272.800,112.141 272.800 C 112.036 272.800,112.440 273.701,113.040 274.802 M273.234 274.700 C 273.252 274.865,274.017 275.622,274.934 276.382 L 276.600 277.763 275.019 276.082 C 273.393 274.352,273.176 274.184,273.234 274.700 M166.669 277.309 C 168.787 279.013,169.405 279.321,167.800 277.873 C 166.920 277.080,166.051 276.423,165.869 276.415 C 165.687 276.407,166.047 276.809,166.669 277.309 M278.005 278.704 C 278.010 279.035,280.809 280.931,280.994 280.729 C 281.059 280.658,280.412 280.107,279.556 279.504 C 278.700 278.901,278.002 278.541,278.005 278.704 M115.536 280.801 C 115.664 282.604,115.565 282.835,114.006 284.394 C 113.089 285.311,112.706 285.865,113.153 285.625 C 115.238 284.509,117.032 279.887,115.700 279.061 C 115.535 278.959,115.461 279.742,115.536 280.801 M170.200 279.807 C 170.640 280.166,171.360 280.635,171.800 280.851 L 172.600 281.244 171.800 280.593 C 171.360 280.234,170.640 279.765,170.200 279.549 L 169.400 279.156 170.200 279.807 M333.701 281.000 C 333.705 281.880,333.787 282.193,333.883 281.695 C 333.979 281.198,333.975 280.478,333.875 280.095 C 333.775 279.713,333.696 280.120,333.701 281.000 M283.200 281.857 C 283.200 282.127,286.835 283.698,287.024 283.509 C 287.111 283.422,286.286 282.973,285.191 282.510 C 284.096 282.047,283.200 281.753,283.200 281.857 M175.024 282.587 C 175.451 282.910,176.070 283.179,176.400 283.185 C 176.730 283.190,176.484 282.926,175.854 282.598 C 174.395 281.837,174.025 281.832,175.024 282.587 M66.416 282.740 C 66.395 283.434,68.951 286.000,69.660 285.999 C 69.957 285.998,69.625 285.647,68.923 285.219 C 68.221 284.790,67.373 283.936,67.039 283.320 C 66.705 282.704,66.425 282.443,66.416 282.740 M331.838 284.495 C 330.362 286.035,330.528 286.229,332.137 284.844 C 332.773 284.296,333.840 282.738,333.514 282.833 C 333.451 282.852,332.697 283.599,331.838 284.495 M181.000 284.800 C 181.440 284.989,182.070 285.144,182.400 285.144 C 182.778 285.144,182.704 285.017,182.200 284.800 C 181.760 284.611,181.130 284.456,180.800 284.456 C 180.422 284.456,180.496 284.583,181.000 284.800 M290.400 284.800 C 291.768 285.238,292.819 285.238,291.800 284.800 C 291.360 284.611,290.640 284.462,290.200 284.468 C 289.557 284.477,289.596 284.543,290.400 284.800 M293.800 285.600 C 295.492 286.031,296.944 286.031,295.600 285.600 C 295.050 285.424,294.150 285.283,293.600 285.287 C 292.702 285.294,292.722 285.326,293.800 285.600 M81.300 286.300 C 86.745 286.363,95.655 286.363,101.100 286.300 C 106.545 286.237,102.090 286.185,91.200 286.185 C 80.310 286.185,75.855 286.237,81.300 286.300 M198.274 286.299 C 202.055 286.365,208.355 286.365,212.274 286.299 C 216.193 286.234,213.100 286.180,205.400 286.180 C 197.700 286.180,194.493 286.234,198.274 286.299 M307.900 286.299 C 311.695 286.365,317.905 286.365,321.700 286.299 C 325.495 286.234,322.390 286.180,314.800 286.180 C 307.210 286.180,304.105 286.234,307.900 286.299 " stroke="none" fill="#646464" fill-rule="evenodd"></path></g></svg>